<mxfile host="app.diagrams.net" modified="2020-11-27T09:26:32.152Z" agent="5.0 (Macintosh; Intel Mac OS X 10_15_6) AppleWebKit/537.36 (KHTML, like Gecko) Chrome/86.0.4240.80 Safari/537.36" etag="gvssl01nUMDHbFTRY4_O" version="13.10.3" type="github">
  <diagram id="cZBPGpnmnq-HmEcKpRpX" name="Page-1">
    <mxGraphModel dx="1839" dy="1051" grid="1" gridSize="10" guides="1" tooltips="1" connect="1" arrows="1" fold="1" page="1" pageScale="1" pageWidth="1654" pageHeight="2336" math="0" shadow="0">
      <root>
        <mxCell id="0" />
        <mxCell id="1" parent="0" />
        <mxCell id="g-ux4vXY3DX0NyAZt6GT-18" value="" style="rounded=0;whiteSpace=wrap;html=1;fillColor=#B5B5B5;" vertex="1" parent="1">
          <mxGeometry x="70" y="60" width="550" height="295" as="geometry" />
        </mxCell>
        <mxCell id="g-ux4vXY3DX0NyAZt6GT-2" value="" style="strokeWidth=2;html=1;shape=mxgraph.flowchart.database;whiteSpace=wrap;" vertex="1" parent="1">
          <mxGeometry x="140" y="113.5" width="175" height="190" as="geometry" />
        </mxCell>
        <mxCell id="g-ux4vXY3DX0NyAZt6GT-5" value="user_0" style="rounded=0;whiteSpace=wrap;html=1;" vertex="1" parent="1">
          <mxGeometry x="170" y="182.5" width="120" height="20" as="geometry" />
        </mxCell>
        <mxCell id="g-ux4vXY3DX0NyAZt6GT-6" value="user_2" style="rounded=0;whiteSpace=wrap;html=1;" vertex="1" parent="1">
          <mxGeometry x="170" y="202.5" width="120" height="20" as="geometry" />
        </mxCell>
        <mxCell id="g-ux4vXY3DX0NyAZt6GT-7" value="user_4" style="rounded=0;whiteSpace=wrap;html=1;" vertex="1" parent="1">
          <mxGeometry x="170" y="222.5" width="120" height="20" as="geometry" />
        </mxCell>
        <mxCell id="g-ux4vXY3DX0NyAZt6GT-8" value="user_6" style="rounded=0;whiteSpace=wrap;html=1;" vertex="1" parent="1">
          <mxGeometry x="170" y="242.5" width="120" height="20" as="geometry" />
        </mxCell>
        <mxCell id="g-ux4vXY3DX0NyAZt6GT-9" value="user_8" style="rounded=0;whiteSpace=wrap;html=1;" vertex="1" parent="1">
          <mxGeometry x="170" y="262.5" width="120" height="20" as="geometry" />
        </mxCell>
        <mxCell id="g-ux4vXY3DX0NyAZt6GT-10" value="user_6" style="rounded=0;whiteSpace=wrap;html=1;" vertex="1" parent="1">
          <mxGeometry x="170" y="242.5" width="120" height="20" as="geometry" />
        </mxCell>
        <mxCell id="g-ux4vXY3DX0NyAZt6GT-11" value="" style="strokeWidth=2;html=1;shape=mxgraph.flowchart.database;whiteSpace=wrap;" vertex="1" parent="1">
          <mxGeometry x="370" y="112.5" width="175" height="190" as="geometry" />
        </mxCell>
        <mxCell id="g-ux4vXY3DX0NyAZt6GT-12" value="user_1" style="rounded=0;whiteSpace=wrap;html=1;" vertex="1" parent="1">
          <mxGeometry x="400" y="182.5" width="120" height="20" as="geometry" />
        </mxCell>
        <mxCell id="g-ux4vXY3DX0NyAZt6GT-13" value="user_3" style="rounded=0;whiteSpace=wrap;html=1;" vertex="1" parent="1">
          <mxGeometry x="400" y="202.5" width="120" height="20" as="geometry" />
        </mxCell>
        <mxCell id="g-ux4vXY3DX0NyAZt6GT-14" value="user_5" style="rounded=0;whiteSpace=wrap;html=1;" vertex="1" parent="1">
          <mxGeometry x="400" y="222.5" width="120" height="20" as="geometry" />
        </mxCell>
        <mxCell id="g-ux4vXY3DX0NyAZt6GT-15" value="user_6" style="rounded=0;whiteSpace=wrap;html=1;" vertex="1" parent="1">
          <mxGeometry x="400" y="242.5" width="120" height="20" as="geometry" />
        </mxCell>
        <mxCell id="g-ux4vXY3DX0NyAZt6GT-16" value="user_9" style="rounded=0;whiteSpace=wrap;html=1;" vertex="1" parent="1">
          <mxGeometry x="400" y="262.5" width="120" height="20" as="geometry" />
        </mxCell>
        <mxCell id="g-ux4vXY3DX0NyAZt6GT-17" value="user_7" style="rounded=0;whiteSpace=wrap;html=1;" vertex="1" parent="1">
          <mxGeometry x="400" y="242.5" width="120" height="20" as="geometry" />
        </mxCell>
        <mxCell id="g-ux4vXY3DX0NyAZt6GT-20" value="&lt;font style=&quot;font-size: 14px&quot;&gt;\d*[1,3,5,7,9]$&lt;/font&gt;" style="text;html=1;strokeColor=none;fillColor=none;align=center;verticalAlign=middle;whiteSpace=wrap;rounded=0;" vertex="1" parent="1">
          <mxGeometry x="415" y="132.5" width="90" height="30" as="geometry" />
        </mxCell>
        <mxCell id="g-ux4vXY3DX0NyAZt6GT-19" value="&lt;font style=&quot;font-size: 14px&quot;&gt;\d*[0,2,4,6,8]$&lt;/font&gt;" style="text;html=1;strokeColor=none;fillColor=none;align=center;verticalAlign=middle;whiteSpace=wrap;rounded=0;" vertex="1" parent="1">
          <mxGeometry x="182.5" y="132.5" width="90" height="30" as="geometry" />
        </mxCell>
        <mxCell id="g-ux4vXY3DX0NyAZt6GT-31" style="edgeStyle=orthogonalEdgeStyle;rounded=0;orthogonalLoop=1;jettySize=auto;html=1;exitX=1;exitY=0.5;exitDx=0;exitDy=0;entryX=0;entryY=0.5;entryDx=0;entryDy=0;entryPerimeter=0;" edge="1" parent="1" source="g-ux4vXY3DX0NyAZt6GT-24" target="g-ux4vXY3DX0NyAZt6GT-25">
          <mxGeometry relative="1" as="geometry" />
        </mxCell>
        <mxCell id="g-ux4vXY3DX0NyAZt6GT-32" style="edgeStyle=orthogonalEdgeStyle;rounded=0;orthogonalLoop=1;jettySize=auto;html=1;exitX=1;exitY=0.5;exitDx=0;exitDy=0;entryX=0;entryY=0.5;entryDx=0;entryDy=0;entryPerimeter=0;" edge="1" parent="1" source="g-ux4vXY3DX0NyAZt6GT-24" target="g-ux4vXY3DX0NyAZt6GT-28">
          <mxGeometry relative="1" as="geometry" />
        </mxCell>
        <mxCell id="g-ux4vXY3DX0NyAZt6GT-35" value="&lt;font style=&quot;font-size: 14px&quot;&gt;正则匹配&lt;/font&gt;" style="edgeLabel;html=1;align=center;verticalAlign=middle;resizable=0;points=[];" vertex="1" connectable="0" parent="g-ux4vXY3DX0NyAZt6GT-32">
          <mxGeometry x="-0.7039" y="-1" relative="1" as="geometry">
            <mxPoint x="13" y="-1" as="offset" />
          </mxGeometry>
        </mxCell>
        <mxCell id="g-ux4vXY3DX0NyAZt6GT-24" value="user_id" style="rounded=0;whiteSpace=wrap;html=1;fillColor=#FFFFFF;" vertex="1" parent="1">
          <mxGeometry x="410" y="540" width="100" height="60" as="geometry" />
        </mxCell>
        <mxCell id="g-ux4vXY3DX0NyAZt6GT-25" value="" style="strokeWidth=2;html=1;shape=mxgraph.flowchart.database;whiteSpace=wrap;fillColor=#FFFFFF;" vertex="1" parent="1">
          <mxGeometry x="800" y="470" width="110" height="70" as="geometry" />
        </mxCell>
        <mxCell id="g-ux4vXY3DX0NyAZt6GT-26" value="&lt;font style=&quot;font-size: 14px&quot;&gt;\d*[0,2,4,6,8]$&lt;/font&gt;" style="text;html=1;strokeColor=none;fillColor=none;align=center;verticalAlign=middle;whiteSpace=wrap;rounded=0;" vertex="1" parent="1">
          <mxGeometry x="810" y="440" width="90" height="30" as="geometry" />
        </mxCell>
        <mxCell id="g-ux4vXY3DX0NyAZt6GT-27" value="&lt;font style=&quot;font-size: 14px&quot;&gt;\d*[0,2,4,6,8]$&lt;/font&gt;" style="text;html=1;strokeColor=none;fillColor=none;align=center;verticalAlign=middle;whiteSpace=wrap;rounded=0;" vertex="1" parent="1">
          <mxGeometry x="182.5" y="132.5" width="90" height="30" as="geometry" />
        </mxCell>
        <mxCell id="g-ux4vXY3DX0NyAZt6GT-28" value="" style="strokeWidth=2;html=1;shape=mxgraph.flowchart.database;whiteSpace=wrap;fillColor=#FFFFFF;" vertex="1" parent="1">
          <mxGeometry x="800" y="630" width="110" height="70" as="geometry" />
        </mxCell>
        <mxCell id="g-ux4vXY3DX0NyAZt6GT-30" value="&lt;font style=&quot;font-size: 14px&quot;&gt;\d*[1,3,5,7,9]$&lt;/font&gt;" style="text;html=1;strokeColor=none;fillColor=none;align=center;verticalAlign=middle;whiteSpace=wrap;rounded=0;" vertex="1" parent="1">
          <mxGeometry x="810" y="600" width="90" height="30" as="geometry" />
        </mxCell>
        <mxCell id="g-ux4vXY3DX0NyAZt6GT-38" value="&lt;span style=&quot;font-size: 14px ; background-color: rgb(255 , 255 , 255)&quot;&gt;匹配&amp;nbsp;&amp;nbsp;&lt;/span&gt;&lt;span style=&quot;font-size: 14px&quot;&gt;\d*[0,2,4,6,8]$&lt;/span&gt;" style="text;html=1;strokeColor=none;fillColor=none;align=center;verticalAlign=middle;whiteSpace=wrap;rounded=0;" vertex="1" parent="1">
          <mxGeometry x="620" y="460" width="160" height="40" as="geometry" />
        </mxCell>
        <mxCell id="g-ux4vXY3DX0NyAZt6GT-39" value="&lt;span style=&quot;font-size: 14px ; background-color: rgb(255 , 255 , 255)&quot;&gt;匹配&amp;nbsp;&amp;nbsp;&lt;/span&gt;&lt;span style=&quot;font-size: 14px&quot;&gt;\d*[1,3,5,7,9]$&lt;/span&gt;" style="text;html=1;strokeColor=none;fillColor=none;align=center;verticalAlign=middle;whiteSpace=wrap;rounded=0;" vertex="1" parent="1">
          <mxGeometry x="620" y="670" width="160" height="40" as="geometry" />
        </mxCell>
        <mxCell id="g-ux4vXY3DX0NyAZt6GT-60" style="edgeStyle=orthogonalEdgeStyle;rounded=0;orthogonalLoop=1;jettySize=auto;html=1;exitX=1;exitY=0.5;exitDx=0;exitDy=0;entryX=0;entryY=0.5;entryDx=0;entryDy=0;" edge="1" parent="1" source="g-ux4vXY3DX0NyAZt6GT-63" target="g-ux4vXY3DX0NyAZt6GT-84">
          <mxGeometry relative="1" as="geometry">
            <mxPoint x="770" y="1025" as="targetPoint" />
            <Array as="points">
              <mxPoint x="665" y="1090" />
              <mxPoint x="665" y="935" />
            </Array>
          </mxGeometry>
        </mxCell>
        <mxCell id="g-ux4vXY3DX0NyAZt6GT-115" value="&lt;font style=&quot;font-size: 18px&quot;&gt;0&lt;/font&gt;" style="edgeLabel;html=1;align=center;verticalAlign=middle;resizable=0;points=[];" vertex="1" connectable="0" parent="g-ux4vXY3DX0NyAZt6GT-60">
          <mxGeometry x="0.6305" y="3" relative="1" as="geometry">
            <mxPoint as="offset" />
          </mxGeometry>
        </mxCell>
        <mxCell id="g-ux4vXY3DX0NyAZt6GT-100" style="edgeStyle=orthogonalEdgeStyle;rounded=0;orthogonalLoop=1;jettySize=auto;html=1;exitX=1;exitY=0.5;exitDx=0;exitDy=0;entryX=0;entryY=0.5;entryDx=0;entryDy=0;" edge="1" parent="1" source="g-ux4vXY3DX0NyAZt6GT-63" target="g-ux4vXY3DX0NyAZt6GT-91">
          <mxGeometry relative="1" as="geometry" />
        </mxCell>
        <mxCell id="g-ux4vXY3DX0NyAZt6GT-114" value="&lt;font style=&quot;font-size: 18px&quot;&gt;2&lt;/font&gt;" style="edgeLabel;html=1;align=center;verticalAlign=middle;resizable=0;points=[];" vertex="1" connectable="0" parent="g-ux4vXY3DX0NyAZt6GT-100">
          <mxGeometry x="0.6121" y="-2" relative="1" as="geometry">
            <mxPoint as="offset" />
          </mxGeometry>
        </mxCell>
        <mxCell id="g-ux4vXY3DX0NyAZt6GT-101" style="edgeStyle=orthogonalEdgeStyle;rounded=0;orthogonalLoop=1;jettySize=auto;html=1;exitX=1;exitY=0.5;exitDx=0;exitDy=0;entryX=0;entryY=0.5;entryDx=0;entryDy=0;" edge="1" parent="1" source="g-ux4vXY3DX0NyAZt6GT-63" target="g-ux4vXY3DX0NyAZt6GT-92">
          <mxGeometry relative="1" as="geometry" />
        </mxCell>
        <mxCell id="g-ux4vXY3DX0NyAZt6GT-116" value="&lt;font style=&quot;font-size: 18px&quot;&gt;4&lt;/font&gt;" style="edgeLabel;html=1;align=center;verticalAlign=middle;resizable=0;points=[];" vertex="1" connectable="0" parent="g-ux4vXY3DX0NyAZt6GT-101">
          <mxGeometry x="0.5828" relative="1" as="geometry">
            <mxPoint as="offset" />
          </mxGeometry>
        </mxCell>
        <mxCell id="g-ux4vXY3DX0NyAZt6GT-102" style="edgeStyle=orthogonalEdgeStyle;rounded=0;orthogonalLoop=1;jettySize=auto;html=1;exitX=1;exitY=0.5;exitDx=0;exitDy=0;entryX=0;entryY=0.5;entryDx=0;entryDy=0;" edge="1" parent="1" source="g-ux4vXY3DX0NyAZt6GT-63" target="g-ux4vXY3DX0NyAZt6GT-93">
          <mxGeometry relative="1" as="geometry" />
        </mxCell>
        <mxCell id="g-ux4vXY3DX0NyAZt6GT-117" value="&lt;font style=&quot;font-size: 18px&quot;&gt;6&lt;/font&gt;" style="edgeLabel;html=1;align=center;verticalAlign=middle;resizable=0;points=[];" vertex="1" connectable="0" parent="g-ux4vXY3DX0NyAZt6GT-102">
          <mxGeometry x="0.554" relative="1" as="geometry">
            <mxPoint as="offset" />
          </mxGeometry>
        </mxCell>
        <mxCell id="g-ux4vXY3DX0NyAZt6GT-103" style="edgeStyle=orthogonalEdgeStyle;rounded=0;orthogonalLoop=1;jettySize=auto;html=1;exitX=1;exitY=0.5;exitDx=0;exitDy=0;" edge="1" parent="1" source="g-ux4vXY3DX0NyAZt6GT-63" target="g-ux4vXY3DX0NyAZt6GT-94">
          <mxGeometry relative="1" as="geometry">
            <Array as="points">
              <mxPoint x="665" y="1090" />
              <mxPoint x="665" y="1055" />
            </Array>
          </mxGeometry>
        </mxCell>
        <mxCell id="g-ux4vXY3DX0NyAZt6GT-119" value="&lt;span style=&quot;font-size: 18px&quot;&gt;8&lt;/span&gt;" style="edgeLabel;html=1;align=center;verticalAlign=middle;resizable=0;points=[];" vertex="1" connectable="0" parent="g-ux4vXY3DX0NyAZt6GT-103">
          <mxGeometry x="0.521" relative="1" as="geometry">
            <mxPoint as="offset" />
          </mxGeometry>
        </mxCell>
        <mxCell id="g-ux4vXY3DX0NyAZt6GT-104" style="edgeStyle=orthogonalEdgeStyle;rounded=0;orthogonalLoop=1;jettySize=auto;html=1;exitX=1;exitY=0.5;exitDx=0;exitDy=0;entryX=0;entryY=0.5;entryDx=0;entryDy=0;" edge="1" parent="1" source="g-ux4vXY3DX0NyAZt6GT-63" target="g-ux4vXY3DX0NyAZt6GT-98">
          <mxGeometry relative="1" as="geometry" />
        </mxCell>
        <mxCell id="g-ux4vXY3DX0NyAZt6GT-123" value="&lt;font style=&quot;font-size: 18px&quot;&gt;7&lt;/font&gt;" style="edgeLabel;html=1;align=center;verticalAlign=middle;resizable=0;points=[];" vertex="1" connectable="0" parent="g-ux4vXY3DX0NyAZt6GT-104">
          <mxGeometry x="0.6466" y="-2" relative="1" as="geometry">
            <mxPoint as="offset" />
          </mxGeometry>
        </mxCell>
        <mxCell id="g-ux4vXY3DX0NyAZt6GT-105" style="edgeStyle=orthogonalEdgeStyle;rounded=0;orthogonalLoop=1;jettySize=auto;html=1;exitX=1;exitY=0.5;exitDx=0;exitDy=0;entryX=0;entryY=0.5;entryDx=0;entryDy=0;" edge="1" parent="1" source="g-ux4vXY3DX0NyAZt6GT-63" target="g-ux4vXY3DX0NyAZt6GT-99">
          <mxGeometry relative="1" as="geometry">
            <mxPoint x="810" y="1260" as="targetPoint" />
          </mxGeometry>
        </mxCell>
        <mxCell id="g-ux4vXY3DX0NyAZt6GT-124" value="&lt;font style=&quot;font-size: 18px&quot;&gt;9&lt;/font&gt;" style="edgeLabel;html=1;align=center;verticalAlign=middle;resizable=0;points=[];" vertex="1" connectable="0" parent="g-ux4vXY3DX0NyAZt6GT-105">
          <mxGeometry x="0.6624" y="1" relative="1" as="geometry">
            <mxPoint x="2" y="1" as="offset" />
          </mxGeometry>
        </mxCell>
        <mxCell id="g-ux4vXY3DX0NyAZt6GT-106" style="edgeStyle=orthogonalEdgeStyle;rounded=0;orthogonalLoop=1;jettySize=auto;html=1;exitX=1;exitY=0.5;exitDx=0;exitDy=0;entryX=0;entryY=0.75;entryDx=0;entryDy=0;" edge="1" parent="1" source="g-ux4vXY3DX0NyAZt6GT-63" target="g-ux4vXY3DX0NyAZt6GT-97">
          <mxGeometry relative="1" as="geometry" />
        </mxCell>
        <mxCell id="g-ux4vXY3DX0NyAZt6GT-122" value="&lt;font style=&quot;font-size: 18px&quot;&gt;5&lt;/font&gt;" style="edgeLabel;html=1;align=center;verticalAlign=middle;resizable=0;points=[];" vertex="1" connectable="0" parent="g-ux4vXY3DX0NyAZt6GT-106">
          <mxGeometry x="0.6305" relative="1" as="geometry">
            <mxPoint y="1" as="offset" />
          </mxGeometry>
        </mxCell>
        <mxCell id="g-ux4vXY3DX0NyAZt6GT-107" style="edgeStyle=orthogonalEdgeStyle;rounded=0;orthogonalLoop=1;jettySize=auto;html=1;exitX=1;exitY=0.5;exitDx=0;exitDy=0;entryX=0;entryY=0.75;entryDx=0;entryDy=0;" edge="1" parent="1" source="g-ux4vXY3DX0NyAZt6GT-63" target="g-ux4vXY3DX0NyAZt6GT-96">
          <mxGeometry relative="1" as="geometry" />
        </mxCell>
        <mxCell id="g-ux4vXY3DX0NyAZt6GT-121" value="&lt;span style=&quot;font-size: 18px&quot;&gt;3&lt;/span&gt;" style="edgeLabel;html=1;align=center;verticalAlign=middle;resizable=0;points=[];" vertex="1" connectable="0" parent="g-ux4vXY3DX0NyAZt6GT-107">
          <mxGeometry x="0.5978" y="-1" relative="1" as="geometry">
            <mxPoint x="3.5" y="1" as="offset" />
          </mxGeometry>
        </mxCell>
        <mxCell id="g-ux4vXY3DX0NyAZt6GT-108" style="edgeStyle=orthogonalEdgeStyle;rounded=0;orthogonalLoop=1;jettySize=auto;html=1;exitX=1;exitY=0.5;exitDx=0;exitDy=0;entryX=0;entryY=0.75;entryDx=0;entryDy=0;" edge="1" parent="1" source="g-ux4vXY3DX0NyAZt6GT-63" target="g-ux4vXY3DX0NyAZt6GT-95">
          <mxGeometry relative="1" as="geometry" />
        </mxCell>
        <mxCell id="g-ux4vXY3DX0NyAZt6GT-110" value="&lt;font style=&quot;font-size: 14px&quot;&gt;user_id %10&lt;/font&gt;" style="edgeLabel;html=1;align=center;verticalAlign=middle;resizable=0;points=[];" vertex="1" connectable="0" parent="g-ux4vXY3DX0NyAZt6GT-108">
          <mxGeometry x="-0.6763" relative="1" as="geometry">
            <mxPoint x="10" as="offset" />
          </mxGeometry>
        </mxCell>
        <mxCell id="g-ux4vXY3DX0NyAZt6GT-120" value="&lt;font style=&quot;font-size: 18px&quot;&gt;1&lt;/font&gt;" style="edgeLabel;html=1;align=center;verticalAlign=middle;resizable=0;points=[];" vertex="1" connectable="0" parent="g-ux4vXY3DX0NyAZt6GT-108">
          <mxGeometry x="0.5699" y="-1" relative="1" as="geometry">
            <mxPoint x="3.5" y="-3.5" as="offset" />
          </mxGeometry>
        </mxCell>
        <mxCell id="g-ux4vXY3DX0NyAZt6GT-63" value="user_id" style="rounded=0;whiteSpace=wrap;html=1;fillColor=#FFFFFF;" vertex="1" parent="1">
          <mxGeometry x="380" y="1060" width="100" height="60" as="geometry" />
        </mxCell>
        <mxCell id="g-ux4vXY3DX0NyAZt6GT-84" value="user_0" style="rounded=0;whiteSpace=wrap;html=1;fillColor=#FFFFFF;" vertex="1" parent="1">
          <mxGeometry x="850" y="920" width="120" height="30" as="geometry" />
        </mxCell>
        <mxCell id="g-ux4vXY3DX0NyAZt6GT-91" value="user_2" style="rounded=0;whiteSpace=wrap;html=1;fillColor=#FFFFFF;" vertex="1" parent="1">
          <mxGeometry x="850" y="950" width="120" height="30" as="geometry" />
        </mxCell>
        <mxCell id="g-ux4vXY3DX0NyAZt6GT-92" value="user_4" style="rounded=0;whiteSpace=wrap;html=1;fillColor=#FFFFFF;" vertex="1" parent="1">
          <mxGeometry x="850" y="980" width="120" height="30" as="geometry" />
        </mxCell>
        <mxCell id="g-ux4vXY3DX0NyAZt6GT-93" value="user_6" style="rounded=0;whiteSpace=wrap;html=1;fillColor=#FFFFFF;" vertex="1" parent="1">
          <mxGeometry x="850" y="1010" width="120" height="30" as="geometry" />
        </mxCell>
        <mxCell id="g-ux4vXY3DX0NyAZt6GT-94" value="user_8" style="rounded=0;whiteSpace=wrap;html=1;fillColor=#FFFFFF;" vertex="1" parent="1">
          <mxGeometry x="850" y="1040" width="120" height="30" as="geometry" />
        </mxCell>
        <mxCell id="g-ux4vXY3DX0NyAZt6GT-95" value="user_1" style="rounded=0;whiteSpace=wrap;html=1;fillColor=#FFFFFF;" vertex="1" parent="1">
          <mxGeometry x="850" y="1130" width="120" height="30" as="geometry" />
        </mxCell>
        <mxCell id="g-ux4vXY3DX0NyAZt6GT-96" value="user_3" style="rounded=0;whiteSpace=wrap;html=1;fillColor=#FFFFFF;" vertex="1" parent="1">
          <mxGeometry x="850" y="1160" width="120" height="30" as="geometry" />
        </mxCell>
        <mxCell id="g-ux4vXY3DX0NyAZt6GT-97" value="user_5" style="rounded=0;whiteSpace=wrap;html=1;fillColor=#FFFFFF;" vertex="1" parent="1">
          <mxGeometry x="850" y="1190" width="120" height="30" as="geometry" />
        </mxCell>
        <mxCell id="g-ux4vXY3DX0NyAZt6GT-98" value="user_7" style="rounded=0;whiteSpace=wrap;html=1;fillColor=#FFFFFF;" vertex="1" parent="1">
          <mxGeometry x="850" y="1220" width="120" height="30" as="geometry" />
        </mxCell>
        <mxCell id="g-ux4vXY3DX0NyAZt6GT-99" value="user_9" style="rounded=0;whiteSpace=wrap;html=1;fillColor=#FFFFFF;" vertex="1" parent="1">
          <mxGeometry x="850" y="1250" width="120" height="30" as="geometry" />
        </mxCell>
        <mxCell id="g-ux4vXY3DX0NyAZt6GT-131" style="edgeStyle=orthogonalEdgeStyle;rounded=0;orthogonalLoop=1;jettySize=auto;html=1;exitX=1;exitY=0.5;exitDx=0;exitDy=0;entryX=0;entryY=0.5;entryDx=0;entryDy=0;" edge="1" parent="1" source="g-ux4vXY3DX0NyAZt6GT-125" target="g-ux4vXY3DX0NyAZt6GT-128">
          <mxGeometry relative="1" as="geometry" />
        </mxCell>
        <mxCell id="g-ux4vXY3DX0NyAZt6GT-125" value="跨库事务" style="rounded=0;whiteSpace=wrap;html=1;fillColor=#FFFFFF;" vertex="1" parent="1">
          <mxGeometry x="440" y="1660" width="90" height="40" as="geometry" />
        </mxCell>
        <mxCell id="g-ux4vXY3DX0NyAZt6GT-132" style="edgeStyle=orthogonalEdgeStyle;rounded=0;orthogonalLoop=1;jettySize=auto;html=1;exitX=1;exitY=0.5;exitDx=0;exitDy=0;entryX=0;entryY=0.5;entryDx=0;entryDy=0;" edge="1" parent="1" source="g-ux4vXY3DX0NyAZt6GT-128" target="g-ux4vXY3DX0NyAZt6GT-129">
          <mxGeometry relative="1" as="geometry" />
        </mxCell>
        <mxCell id="g-ux4vXY3DX0NyAZt6GT-133" style="edgeStyle=orthogonalEdgeStyle;rounded=0;orthogonalLoop=1;jettySize=auto;html=1;exitX=1;exitY=0.5;exitDx=0;exitDy=0;entryX=0;entryY=0.75;entryDx=0;entryDy=0;" edge="1" parent="1" source="g-ux4vXY3DX0NyAZt6GT-128" target="g-ux4vXY3DX0NyAZt6GT-130">
          <mxGeometry relative="1" as="geometry" />
        </mxCell>
        <mxCell id="g-ux4vXY3DX0NyAZt6GT-128" value="执行" style="rounded=0;whiteSpace=wrap;html=1;fillColor=#FFFFFF;" vertex="1" parent="1">
          <mxGeometry x="580" y="1660" width="90" height="40" as="geometry" />
        </mxCell>
        <mxCell id="g-ux4vXY3DX0NyAZt6GT-145" style="edgeStyle=orthogonalEdgeStyle;rounded=0;orthogonalLoop=1;jettySize=auto;html=1;exitX=1;exitY=0.5;exitDx=0;exitDy=0;entryX=0;entryY=0.5;entryDx=0;entryDy=0;" edge="1" parent="1" source="g-ux4vXY3DX0NyAZt6GT-129" target="g-ux4vXY3DX0NyAZt6GT-139">
          <mxGeometry relative="1" as="geometry" />
        </mxCell>
        <mxCell id="g-ux4vXY3DX0NyAZt6GT-149" value="commit" style="edgeLabel;html=1;align=center;verticalAlign=middle;resizable=0;points=[];" vertex="1" connectable="0" parent="g-ux4vXY3DX0NyAZt6GT-145">
          <mxGeometry x="0.08" y="1" relative="1" as="geometry">
            <mxPoint as="offset" />
          </mxGeometry>
        </mxCell>
        <mxCell id="g-ux4vXY3DX0NyAZt6GT-146" style="edgeStyle=orthogonalEdgeStyle;rounded=0;orthogonalLoop=1;jettySize=auto;html=1;exitX=1;exitY=0.5;exitDx=0;exitDy=0;" edge="1" parent="1" source="g-ux4vXY3DX0NyAZt6GT-129" target="g-ux4vXY3DX0NyAZt6GT-144">
          <mxGeometry relative="1" as="geometry" />
        </mxCell>
        <mxCell id="g-ux4vXY3DX0NyAZt6GT-151" value="commit" style="edgeLabel;html=1;align=center;verticalAlign=middle;resizable=0;points=[];" vertex="1" connectable="0" parent="g-ux4vXY3DX0NyAZt6GT-146">
          <mxGeometry x="0.34" y="1" relative="1" as="geometry">
            <mxPoint as="offset" />
          </mxGeometry>
        </mxCell>
        <mxCell id="g-ux4vXY3DX0NyAZt6GT-129" value="commit" style="rounded=0;whiteSpace=wrap;html=1;fillColor=#FFFFFF;" vertex="1" parent="1">
          <mxGeometry x="710" y="1580" width="90" height="40" as="geometry" />
        </mxCell>
        <mxCell id="g-ux4vXY3DX0NyAZt6GT-165" style="edgeStyle=orthogonalEdgeStyle;rounded=0;orthogonalLoop=1;jettySize=auto;html=1;exitX=1;exitY=0.5;exitDx=0;exitDy=0;entryX=0;entryY=0.5;entryDx=0;entryDy=0;" edge="1" parent="1" source="g-ux4vXY3DX0NyAZt6GT-130" target="g-ux4vXY3DX0NyAZt6GT-159">
          <mxGeometry relative="1" as="geometry" />
        </mxCell>
        <mxCell id="g-ux4vXY3DX0NyAZt6GT-167" value="rollback" style="edgeLabel;html=1;align=center;verticalAlign=middle;resizable=0;points=[];" vertex="1" connectable="0" parent="g-ux4vXY3DX0NyAZt6GT-165">
          <mxGeometry x="0.1565" y="2" relative="1" as="geometry">
            <mxPoint x="1" as="offset" />
          </mxGeometry>
        </mxCell>
        <mxCell id="g-ux4vXY3DX0NyAZt6GT-166" style="edgeStyle=orthogonalEdgeStyle;rounded=0;orthogonalLoop=1;jettySize=auto;html=1;exitX=1;exitY=0.5;exitDx=0;exitDy=0;entryX=0;entryY=0.5;entryDx=0;entryDy=0;" edge="1" parent="1" source="g-ux4vXY3DX0NyAZt6GT-130" target="g-ux4vXY3DX0NyAZt6GT-163">
          <mxGeometry relative="1" as="geometry" />
        </mxCell>
        <mxCell id="g-ux4vXY3DX0NyAZt6GT-168" value="rollback" style="edgeLabel;html=1;align=center;verticalAlign=middle;resizable=0;points=[];" vertex="1" connectable="0" parent="g-ux4vXY3DX0NyAZt6GT-166">
          <mxGeometry x="-0.048" y="-2" relative="1" as="geometry">
            <mxPoint as="offset" />
          </mxGeometry>
        </mxCell>
        <mxCell id="g-ux4vXY3DX0NyAZt6GT-130" value="rollback" style="rounded=0;whiteSpace=wrap;html=1;fillColor=#FFFFFF;" vertex="1" parent="1">
          <mxGeometry x="710" y="1750" width="90" height="40" as="geometry" />
        </mxCell>
        <mxCell id="g-ux4vXY3DX0NyAZt6GT-134" value="成功" style="text;html=1;strokeColor=none;fillColor=none;align=center;verticalAlign=middle;whiteSpace=wrap;rounded=0;" vertex="1" parent="1">
          <mxGeometry x="640" y="1610" width="40" height="20" as="geometry" />
        </mxCell>
        <mxCell id="g-ux4vXY3DX0NyAZt6GT-135" value="异常" style="text;html=1;strokeColor=none;fillColor=none;align=center;verticalAlign=middle;whiteSpace=wrap;rounded=0;" vertex="1" parent="1">
          <mxGeometry x="640" y="1740" width="40" height="20" as="geometry" />
        </mxCell>
        <mxCell id="g-ux4vXY3DX0NyAZt6GT-137" value="db_1" style="strokeWidth=2;html=1;shape=mxgraph.flowchart.database;whiteSpace=wrap;fillColor=#FFFFFF;" vertex="1" parent="1">
          <mxGeometry x="1030" y="1510" width="60" height="60" as="geometry" />
        </mxCell>
        <mxCell id="g-ux4vXY3DX0NyAZt6GT-138" value="db_2" style="strokeWidth=2;html=1;shape=mxgraph.flowchart.database;whiteSpace=wrap;fillColor=#FFFFFF;" vertex="1" parent="1">
          <mxGeometry x="1030" y="1610" width="60" height="60" as="geometry" />
        </mxCell>
        <mxCell id="g-ux4vXY3DX0NyAZt6GT-147" style="edgeStyle=orthogonalEdgeStyle;rounded=0;orthogonalLoop=1;jettySize=auto;html=1;exitX=1;exitY=0.5;exitDx=0;exitDy=0;" edge="1" parent="1" source="g-ux4vXY3DX0NyAZt6GT-139" target="g-ux4vXY3DX0NyAZt6GT-137">
          <mxGeometry relative="1" as="geometry" />
        </mxCell>
        <mxCell id="g-ux4vXY3DX0NyAZt6GT-150" value="commit" style="edgeLabel;html=1;align=center;verticalAlign=middle;resizable=0;points=[];" vertex="1" connectable="0" parent="g-ux4vXY3DX0NyAZt6GT-147">
          <mxGeometry x="-0.15" y="-3" relative="1" as="geometry">
            <mxPoint as="offset" />
          </mxGeometry>
        </mxCell>
        <mxCell id="g-ux4vXY3DX0NyAZt6GT-139" value="connection_1" style="rounded=0;whiteSpace=wrap;html=1;fillColor=#FFFFFF;" vertex="1" parent="1">
          <mxGeometry x="860" y="1520" width="90" height="40" as="geometry" />
        </mxCell>
        <mxCell id="g-ux4vXY3DX0NyAZt6GT-142" style="edgeStyle=orthogonalEdgeStyle;rounded=0;orthogonalLoop=1;jettySize=auto;html=1;exitX=0.5;exitY=1;exitDx=0;exitDy=0;" edge="1" parent="1">
          <mxGeometry relative="1" as="geometry">
            <mxPoint x="880" y="1640" as="sourcePoint" />
            <mxPoint x="880" y="1640" as="targetPoint" />
          </mxGeometry>
        </mxCell>
        <mxCell id="g-ux4vXY3DX0NyAZt6GT-148" style="edgeStyle=orthogonalEdgeStyle;rounded=0;orthogonalLoop=1;jettySize=auto;html=1;exitX=1;exitY=0.5;exitDx=0;exitDy=0;entryX=0;entryY=0.5;entryDx=0;entryDy=0;entryPerimeter=0;" edge="1" parent="1" source="g-ux4vXY3DX0NyAZt6GT-144" target="g-ux4vXY3DX0NyAZt6GT-138">
          <mxGeometry relative="1" as="geometry" />
        </mxCell>
        <mxCell id="g-ux4vXY3DX0NyAZt6GT-152" value="commit" style="edgeLabel;html=1;align=center;verticalAlign=middle;resizable=0;points=[];" vertex="1" connectable="0" parent="g-ux4vXY3DX0NyAZt6GT-148">
          <mxGeometry x="-0.0333" y="3" relative="1" as="geometry">
            <mxPoint as="offset" />
          </mxGeometry>
        </mxCell>
        <mxCell id="g-ux4vXY3DX0NyAZt6GT-144" value="connection_2" style="rounded=0;whiteSpace=wrap;html=1;fillColor=#FFFFFF;" vertex="1" parent="1">
          <mxGeometry x="860" y="1620" width="90" height="40" as="geometry" />
        </mxCell>
        <mxCell id="g-ux4vXY3DX0NyAZt6GT-155" value="db_1" style="strokeWidth=2;html=1;shape=mxgraph.flowchart.database;whiteSpace=wrap;fillColor=#FFFFFF;" vertex="1" parent="1">
          <mxGeometry x="1030" y="1690" width="60" height="60" as="geometry" />
        </mxCell>
        <mxCell id="g-ux4vXY3DX0NyAZt6GT-156" value="db_2" style="strokeWidth=2;html=1;shape=mxgraph.flowchart.database;whiteSpace=wrap;fillColor=#FFFFFF;" vertex="1" parent="1">
          <mxGeometry x="1030" y="1800" width="60" height="60" as="geometry" />
        </mxCell>
        <mxCell id="g-ux4vXY3DX0NyAZt6GT-157" style="edgeStyle=orthogonalEdgeStyle;rounded=0;orthogonalLoop=1;jettySize=auto;html=1;exitX=1;exitY=0.5;exitDx=0;exitDy=0;" edge="1" parent="1" source="g-ux4vXY3DX0NyAZt6GT-159" target="g-ux4vXY3DX0NyAZt6GT-155">
          <mxGeometry relative="1" as="geometry" />
        </mxCell>
        <mxCell id="g-ux4vXY3DX0NyAZt6GT-158" value="rollback" style="edgeLabel;html=1;align=center;verticalAlign=middle;resizable=0;points=[];" vertex="1" connectable="0" parent="g-ux4vXY3DX0NyAZt6GT-157">
          <mxGeometry x="-0.15" y="-3" relative="1" as="geometry">
            <mxPoint as="offset" />
          </mxGeometry>
        </mxCell>
        <mxCell id="g-ux4vXY3DX0NyAZt6GT-159" value="connection_1" style="rounded=0;whiteSpace=wrap;html=1;fillColor=#FFFFFF;" vertex="1" parent="1">
          <mxGeometry x="865" y="1700" width="90" height="40" as="geometry" />
        </mxCell>
        <mxCell id="g-ux4vXY3DX0NyAZt6GT-160" style="edgeStyle=orthogonalEdgeStyle;rounded=0;orthogonalLoop=1;jettySize=auto;html=1;exitX=0.5;exitY=1;exitDx=0;exitDy=0;" edge="1" parent="1">
          <mxGeometry relative="1" as="geometry">
            <mxPoint x="878" y="1830" as="sourcePoint" />
            <mxPoint x="878" y="1830" as="targetPoint" />
          </mxGeometry>
        </mxCell>
        <mxCell id="g-ux4vXY3DX0NyAZt6GT-161" style="edgeStyle=orthogonalEdgeStyle;rounded=0;orthogonalLoop=1;jettySize=auto;html=1;exitX=1;exitY=0.5;exitDx=0;exitDy=0;entryX=0;entryY=0.5;entryDx=0;entryDy=0;entryPerimeter=0;" edge="1" parent="1" source="g-ux4vXY3DX0NyAZt6GT-163" target="g-ux4vXY3DX0NyAZt6GT-156">
          <mxGeometry relative="1" as="geometry" />
        </mxCell>
        <mxCell id="g-ux4vXY3DX0NyAZt6GT-162" value="rollback&lt;br&gt;" style="edgeLabel;html=1;align=center;verticalAlign=middle;resizable=0;points=[];" vertex="1" connectable="0" parent="g-ux4vXY3DX0NyAZt6GT-161">
          <mxGeometry x="-0.0333" y="3" relative="1" as="geometry">
            <mxPoint as="offset" />
          </mxGeometry>
        </mxCell>
        <mxCell id="g-ux4vXY3DX0NyAZt6GT-163" value="connection_2" style="rounded=0;whiteSpace=wrap;html=1;fillColor=#FFFFFF;" vertex="1" parent="1">
          <mxGeometry x="865" y="1810" width="90" height="40" as="geometry" />
        </mxCell>
      </root>
    </mxGraphModel>
  </diagram>
</mxfile>
